<?xml version="1.0" encoding="UTF-8" standalone="no"?>
<!-- Created with Inkscape (http://www.inkscape.org/) -->

<svg
   xmlns:dc="http://purl.org/dc/elements/1.1/"
   xmlns:cc="http://creativecommons.org/ns#"
   xmlns:rdf="http://www.w3.org/1999/02/22-rdf-syntax-ns#"
   xmlns:svg="http://www.w3.org/2000/svg"
   xmlns="http://www.w3.org/2000/svg"
   xmlns:sodipodi="http://sodipodi.sourceforge.net/DTD/sodipodi-0.dtd"
   xmlns:inkscape="http://www.inkscape.org/namespaces/inkscape"
   width="4.1958699mm"
   height="4.1215mm"
   viewBox="0 0 4.1958699 4.1215"
   version="1.1"
   id="svg12366"
   sodipodi:docname="editar_2.svg"
   inkscape:version="0.92.3 (2405546, 2018-03-11)">
  <defs
     id="defs12360">
    <style
       id="style819">.cls-1{fill:#045;opacity:0.8;}.cls-1,.cls-2{isolation:isolate;}.cls-3{fill:#fff;}</style>
  </defs>
  <sodipodi:namedview
     id="base"
     pagecolor="#ffffff"
     bordercolor="#666666"
     borderopacity="1.0"
     inkscape:pageopacity="0.0"
     inkscape:pageshadow="2"
     inkscape:zoom="7.919596"
     inkscape:cx="-6.0566276"
     inkscape:cy="2.4785613"
     inkscape:document-units="mm"
     inkscape:current-layer="layer1"
     showgrid="false"
     fit-margin-top="0"
     fit-margin-left="0"
     fit-margin-right="0"
     fit-margin-bottom="0"
     inkscape:window-width="1366"
     inkscape:window-height="705"
     inkscape:window-x="-8"
     inkscape:window-y="1072"
     inkscape:window-maximized="1" />
  <metadata
     id="metadata12363">
    <rdf:RDF>
      <cc:Work
         rdf:about="">
        <dc:format>image/svg+xml</dc:format>
        <dc:type
           rdf:resource="http://purl.org/dc/dcmitype/StillImage" />
        <dc:title></dc:title>
      </cc:Work>
    </rdf:RDF>
  </metadata>
  <g
     inkscape:label="Layer 1"
     inkscape:groupmode="layer"
     id="layer1"
     transform="translate(-122.63446,-221.61014)">
    <g
       id="g822">
      <path
         id="path28019-5"
         d="m 126.68072,225.43952 h -3.8972 c -0.0819,0 -0.14606,0.0677 -0.14606,0.14606 0,0.0784 0.0677,0.14606 0.14606,0.14606 h 3.90076 c 0.0819,0 0.14605,-0.0677 0.14605,-0.14606 0,-0.0784 -0.0677,-0.14606 -0.14961,-0.14606 z"
         inkscape:connector-curvature="0"
         style="fill:#0096ff;fill-opacity:1;stroke-width:0.03562335" />
      <path
         id="path28021-5"
         d="m 122.63746,224.14637 -0.003,0.69464 c 0,0.0391 0.0142,0.0784 0.0428,0.10688 0.0285,0.0285 0.0641,0.0424 0.10331,0.0424 l 0.69109,-0.007 c 0.0392,0 0.0748,-0.0139 0.10331,-0.0424 l 2.38676,-2.38679 c 0.057,-0.057 0.057,-0.14958 0,-0.21018 l -0.68396,-0.69103 c -0.057,-0.057 -0.14963,-0.057 -0.21019,0 l -0.47735,0.48092 -1.90941,1.90584 c -0.0249,0.0285 -0.0428,0.0643 -0.0428,0.1033 z m 2.53639,-2.17655 0.48091,0.48089 -0.27073,0.27071 -0.48092,-0.48089 z m -2.24071,2.24066 1.75979,-1.75977 0.48092,0.48088 -1.75979,1.75627 -0.48448,0.007 z"
         inkscape:connector-curvature="0"
         style="fill:#0096ff;fill-opacity:1;stroke-width:0.03562335" />
    </g>
  </g>
</svg>
